<?xml version="1.0" standalone="no"?>
<!DOCTYPE svg PUBLIC "-//W3C//DTD SVG 20010904//EN"
 "http://www.w3.org/TR/2001/REC-SVG-20010904/DTD/svg10.dtd">
<svg version="1.0" xmlns="http://www.w3.org/2000/svg"
 width="1500.000000pt" height="1500.000000pt" viewBox="0 0 1500.000000 1500.000000"
 preserveAspectRatio="xMidYMid meet">
<g transform="translate(0.000000,1500.000000) scale(0.040000,-0.040000)"
fill="#112e56" stroke="none">
<path d="M0 18750 l0 -18750 18750 0 18750 0 0 18750 0 18750 -18750 0 -18750
0 0 -18750z m33731 15936 c31 -31 -17 -115 -84 -150 -104 -54 -2447 -2394
-2447 -2444 0 -23 -11 -42 -23 -42 -13 0 -78 -48 -144 -106 -206 -182 -5143
-5125 -5244 -5250 -52 -66 -109 -119 -127 -119 -17 0 -114 86 -215 192 -332
345 -507 519 -653 650 -79 71 -144 142 -144 157 0 15 81 103 179 195 241 227
6346 6334 6647 6649 l239 251 624 -8 c343 -4 742 1 886 12 357 26 489 30 506
13z m-2390 -86 c52 0 81 -10 72 -25 -9 -14 -44 -25 -78 -25 -34 0 -68 -17 -76
-37 -8 -21 -33 -38 -55 -38 -23 0 -90 -29 -150 -63 -60 -34 -140 -62 -178 -62
-38 0 -112 -31 -166 -70 -97 -70 -446 -180 -568 -180 -37 0 -102 -33 -149 -73
-75 -66 -90 -71 -145 -43 -53 28 -71 24 -142 -30 -72 -54 -100 -59 -238 -48
-105 8 -165 2 -185 -18 -15 -17 -96 -44 -180 -60 -83 -17 -158 -41 -166 -54
-8 -13 -40 -24 -70 -24 -30 0 -87 -17 -126 -38 -39 -20 -90 -37 -113 -37 -22
0 -106 -33 -186 -73 -80 -39 -184 -79 -230 -88 -103 -19 -131 -55 -62 -76 72
-23 63 -88 -12 -88 -41 0 -63 14 -63 39 0 26 -18 37 -54 31 -71 -10 -92 -70
-25 -70 28 0 58 -11 67 -25 24 -39 -64 -61 -116 -29 -25 16 -65 29 -87 29 -50
0 -510 -225 -510 -249 0 -26 -293 -176 -344 -176 -76 -1 -123 -43 -87 -79 17
-17 31 -53 31 -80 0 -46 -2 -47 -48 -5 -37 34 -59 37 -98 16 -28 -15 -73 -27
-101 -27 -28 0 -82 -39 -121 -87 -41 -52 -92 -88 -124 -88 -38 0 -57 -18 -63
-56 -11 -78 -107 -78 -108 0 -1 66 -16 71 -111 32 -58 -24 -85 -23 -147 9 -72
38 -148 10 -87 -32 13 -8 31 -35 40 -59 9 -24 40 -44 69 -44 37 0 50 -13 44
-43 -14 -77 -81 -62 -130 28 -58 110 -109 129 -175 69 -29 -26 -71 -57 -93
-69 -63 -35 -349 -288 -433 -384 -42 -48 -132 -138 -199 -200 -67 -63 -135
-128 -150 -146 -15 -18 -61 -63 -102 -100 -40 -37 -108 -106 -150 -154 -85
-96 -82 -94 -440 -443 -143 -140 -309 -306 -368 -368 -58 -63 -118 -115 -132
-115 -13 0 -31 -16 -39 -37 -7 -20 -94 -101 -193 -181 -98 -79 -187 -158 -198
-176 -11 -17 -32 -31 -46 -31 -14 0 -90 -49 -168 -109 -78 -60 -181 -131 -229
-157 -48 -26 -159 -95 -246 -153 -86 -58 -169 -106 -182 -106 -14 0 -61 -26
-105 -58 -44 -33 -136 -79 -204 -104 -69 -24 -161 -66 -203 -91 -43 -26 -95
-47 -116 -47 -21 0 -52 -17 -69 -37 -17 -21 -52 -38 -78 -38 -26 0 -67 -10
-91 -22 -140 -70 -288 -128 -327 -128 -24 0 -66 -17 -93 -37 -27 -20 -68 -37
-93 -37 -24 -1 -142 -33 -262 -73 -425 -140 -757 -228 -861 -228 -38 0 -129
-22 -201 -50 -72 -27 -151 -50 -174 -50 -23 0 -53 -19 -66 -41 -20 -37 -26
-36 -53 15 -53 98 -20 2084 36 2214 24 55 47 103 51 108 20 21 112 -28 112
-59 0 -19 19 -45 43 -58 36 -21 38 -34 12 -90 -36 -81 -39 -164 -5 -164 14 0
25 21 25 46 0 59 21 79 65 62 46 -18 45 -119 -2 -158 -48 -39 -48 -85 -2 -124
29 -24 38 -140 44 -602 8 -639 5 -628 195 -664 48 -9 104 -30 125 -48 26 -21
73 -25 150 -13 l113 18 -71 29 c-39 16 -66 43 -61 60 16 48 180 54 218 8 52
-63 156 -51 146 17 -6 48 5 58 80 65 48 4 107 25 130 46 24 22 60 33 80 25 20
-8 84 23 145 72 59 47 127 86 151 86 24 0 44 11 44 24 0 35 147 95 279 113 67
9 122 31 131 52 18 48 88 46 144 -5 57 -52 171 -11 171 60 0 55 160 136 196
100 36 -36 71 -5 87 78 18 87 111 132 146 70 29 -52 213 18 235 89 23 72 -33
119 -75 63 -17 -24 -44 -44 -59 -44 -15 0 -39 -20 -53 -44 -22 -37 -26 -33
-26 26 -1 45 15 75 43 84 24 7 66 23 94 34 27 12 93 29 147 38 68 11 126 45
192 114 52 54 117 98 144 98 29 0 113 64 196 151 113 117 158 148 199 138 34
-9 59 0 68 24 9 22 46 37 93 37 61 0 75 9 63 40 -8 21 -15 49 -15 62 0 13 -28
23 -62 23 -39 0 -63 14 -63 38 0 25 25 37 75 37 41 0 75 -11 75 -25 0 -40 50
-29 67 14 24 63 188 236 223 236 60 0 159 112 134 151 -42 66 -25 81 76 64 87
-14 100 -10 100 32 0 26 -17 54 -37 62 -21 8 -38 26 -38 40 0 14 17 26 38 26
20 0 37 -18 37 -39 0 -24 17 -36 44 -31 24 5 44 31 44 59 1 54 219 290 293
318 27 10 41 38 38 73 -6 48 5 58 69 58 97 0 242 128 186 163 -26 16 -48 8
-75 -28 -38 -50 -39 -50 -91 11 l-53 61 66 14 c37 7 112 23 167 34 272 56 -52
70 -1825 77 -1589 6 -1853 12 -1870 44 -32 56 -13687 55 -13709 -1 -11 -29
-59 -38 -210 -38 -108 0 -227 -12 -266 -27 l-70 -27 69 -37 c38 -20 80 -29 94
-21 44 27 75 -13 45 -60 -22 -35 -15 -57 39 -115 37 -40 62 -86 55 -102 -12
-34 65 -113 155 -159 32 -17 68 -59 82 -94 19 -52 31 -58 60 -34 45 38 88 13
88 -50 0 -34 -17 -49 -56 -49 -51 0 -48 -7 32 -81 47 -45 98 -82 112 -82 13 0
81 -55 150 -121 68 -66 172 -143 231 -171 131 -62 152 -93 93 -136 -43 -31
-42 -36 23 -96 37 -35 76 -63 86 -63 10 0 86 -62 168 -138 81 -75 170 -144
197 -153 71 -23 140 -115 111 -150 -25 -30 117 -189 233 -259 195 -118 251
-163 272 -219 19 -50 31 -56 60 -32 45 38 88 13 88 -50 0 -34 -17 -49 -56 -49
-51 0 -48 -7 32 -81 47 -45 98 -82 112 -82 13 0 86 -60 161 -131 76 -72 159
-138 186 -147 72 -23 141 -115 112 -150 -25 -30 117 -189 233 -259 195 -118
251 -163 272 -219 20 -52 30 -57 63 -29 32 27 48 21 98 -41 63 -77 79 -136 37
-136 -14 0 -25 -20 -24 -44 1 -41 3 -41 33 -1 44 58 241 34 241 -29 0 -56 115
-109 169 -79 23 13 101 17 173 10 107 -11 135 -6 148 27 8 23 39 41 69 41 94
1 137 45 83 86 -40 30 -27 33 107 21 116 -11 162 -5 195 25 25 22 111 44 206
52 89 7 208 19 263 26 55 7 141 18 192 24 52 7 106 20 122 30 27 16 239 36
409 37 40 0 90 14 110 31 26 21 168 31 477 31 2093 5 2875 14 2888 34 8 13 70
31 139 41 107 14 125 25 125 71 0 69 137 158 183 120 18 -15 46 -17 65 -5 26
16 24 25 -11 45 -28 15 -39 40 -29 65 19 51 89 53 108 4 8 -21 36 -38 62 -38
53 0 61 26 18 69 -40 40 23 113 84 98 25 -7 45 -2 45 10 0 13 -11 23 -25 23
-41 0 -28 125 14 141 22 9 55 -5 76 -32 36 -44 38 -42 26 28 -19 123 81 272
118 176 12 -31 26 -33 80 -8 60 27 62 33 23 61 -25 18 -37 48 -28 70 19 51
141 52 141 2 0 -21 11 -38 25 -38 32 0 32 43 0 63 -42 26 -28 62 38 92 44 20
62 48 62 98 0 88 41 113 99 60 58 -52 90 -10 47 60 -43 67 37 162 120 141 30
-8 74 -7 98 3 40 15 40 18 -1 48 -52 38 -34 110 27 110 23 0 56 -19 72 -41 17
-24 43 -34 60 -23 24 14 24 27 0 55 -43 52 33 131 85 88 19 -16 43 -21 52 -12
28 28 17 58 -21 58 -51 0 -50 122 1 141 22 9 53 -5 74 -32 38 -50 41 -45 47
103 2 51 17 77 50 84 39 7 44 -2 30 -56 -12 -49 -6 -65 22 -65 24 0 38 23 38
63 0 37 14 62 36 62 59 0 72 51 23 87 -44 33 -44 35 -2 52 27 10 62 1 90 -23
55 -51 103 -53 103 -4 0 72 266 144 345 92 45 -29 12 -97 -58 -114 -32 -8 -66
-38 -75 -67 -9 -28 -532 -569 -1161 -1203 l-1145 -1151 -1627 4 c-1061 3
-1716 -5 -1884 -23 -714 -78 -1399 -180 -1507 -226 -51 -21 -188 -55 -443
-107 -78 -16 -157 -44 -174 -61 -17 -17 -56 -31 -85 -31 -30 0 -95 -17 -145
-37 -133 -56 -266 -51 -266 10 0 56 -300 392 -533 597 -11 9 -142 141 -292
293 -149 151 -284 286 -300 300 -15 13 -150 148 -300 300 -149 151 -284 286
-300 300 -15 13 -150 148 -300 300 -149 151 -284 286 -300 300 -15 13 -150
148 -300 300 -149 151 -284 286 -300 300 -15 13 -150 148 -299 300 -149 151
-286 287 -305 303 -18 16 -136 136 -262 266 -125 131 -258 257 -294 281 -36
23 -107 81 -157 127 -105 96 -128 103 -150 44 -10 -25 2 -54 30 -75 38 -28 41
-43 16 -90 -21 -41 -22 -95 -5 -194 14 -83 24 -1289 25 -3019 l0 -2881 65 0
c83 0 77 -100 -8 -137 -45 -20 -56 -45 -56 -131 0 -115 57 -152 87 -57 23 71
104 64 123 -11 35 -138 182 -199 152 -63 -24 110 21 152 141 133 109 -17 128
14 43 71 -32 21 -47 48 -36 65 26 43 92 37 128 -13 27 -36 38 -37 72 -9 54 45
50 77 -10 77 -33 0 -50 17 -50 50 0 27 13 50 29 50 16 0 51 19 76 42 28 25 85
42 136 40 78 -2 93 8 124 82 37 90 143 159 216 142 24 -5 51 8 59 30 9 21 37
39 63 39 26 0 47 17 47 38 0 23 -24 37 -62 37 -35 0 -63 -11 -63 -25 0 -14
-11 -25 -25 -25 -15 0 -13 23 6 56 43 76 66 90 125 75 31 -9 59 2 73 28 13 22
36 41 52 41 15 0 53 23 83 51 35 33 95 53 170 58 130 7 216 67 174 121 -74 96
-31 215 49 135 68 -69 169 -78 185 -18 9 35 34 53 72 53 32 0 65 12 74 27 9
14 45 37 80 50 62 24 65 44 20 154 -14 34 -6 44 35 44 30 0 60 -17 68 -37 22
-57 93 -46 154 25 31 35 82 62 116 62 37 0 73 21 90 52 21 39 35 45 61 23 26
-21 39 -19 55 6 11 19 74 59 140 90 66 30 113 66 105 80 -23 37 -90 29 -141
-17 -42 -38 -46 -38 -62 3 -18 47 34 95 83 77 16 -6 43 5 59 25 42 51 159 49
140 -2 -22 -56 33 -66 146 -27 117 41 138 79 58 104 -57 19 -57 19 13 42 54
19 80 15 114 -16 63 -57 97 -50 183 37 67 66 89 74 170 60 72 -12 97 -6 108
24 16 41 92 55 92 17 0 -12 25 -31 56 -41 53 -18 52 -20 -18 -30 -42 -6 -84
-27 -95 -47 -11 -19 -66 -42 -121 -51 -56 -9 -107 -31 -114 -50 -7 -19 -32
-34 -54 -35 -23 0 -86 -22 -141 -49 -55 -27 -120 -49 -143 -49 -24 -1 -85 -29
-136 -64 -51 -35 -122 -70 -157 -79 -36 -9 -91 -36 -124 -62 -33 -25 -75 -46
-95 -46 -19 0 -41 -17 -49 -37 -8 -21 -34 -38 -59 -38 -24 0 -58 -17 -75 -37
-17 -21 -48 -38 -69 -38 -21 0 -92 -39 -159 -87 -67 -49 -148 -88 -181 -88
-32 0 -79 -23 -103 -50 -25 -27 -60 -50 -76 -50 -17 0 -37 -23 -44 -50 -9 -32
-43 -56 -93 -66 -44 -9 -85 -31 -92 -50 -7 -19 -32 -34 -55 -34 -23 0 -76 -31
-117 -69 -104 -94 -202 -156 -248 -156 -22 0 -52 -28 -68 -62 -15 -35 -38 -63
-50 -63 -42 0 -305 -209 -448 -356 -37 -38 -77 -69 -90 -69 -13 0 -50 -28 -82
-62 -32 -35 -74 -63 -92 -63 -18 0 -33 -12 -33 -26 0 -14 -41 -62 -91 -106
-50 -44 -131 -117 -180 -162 -49 -44 -102 -81 -117 -81 -53 0 -237 -274 -237
-353 0 -35 -12 -48 -35 -39 -41 16 -152 -93 -130 -129 17 -28 -43 -153 -87
-180 -50 -31 -6 -105 52 -87 63 20 63 0 2 -66 -74 -79 -94 -240 -36 -285 42
-32 43 -39 7 -67 -45 -36 -123 -185 -123 -235 0 -18 -46 -62 -101 -97 -81 -51
-98 -75 -86 -115 12 -37 3 -54 -33 -63 -27 -8 -69 -57 -93 -111 -24 -53 -65
-104 -91 -112 -55 -17 -59 -60 -9 -125 42 -56 49 -151 13 -173 -14 -9 -25 6
-25 34 0 27 -34 74 -75 103 l-75 53 0 -63 c0 -34 13 -91 29 -126 35 -77 11
-110 -51 -72 -47 29 -103 -25 -103 -100 0 -50 -78 -200 -121 -232 -20 -15 -29
-40 -19 -56 11 -17 -14 -62 -58 -106 -60 -60 -77 -99 -77 -175 0 -86 -7 -98
-59 -98 -53 0 -63 -17 -89 -151 -17 -85 -46 -158 -66 -165 -26 -10 -29 -26
-10 -60 19 -36 12 -54 -30 -84 -36 -25 -53 -62 -52 -114 2 -52 -13 -84 -48
-103 -27 -15 -44 -42 -37 -60 7 -18 -5 -58 -27 -88 -22 -31 -39 -88 -37 -127
1 -38 -15 -83 -34 -99 -20 -17 -36 -43 -36 -58 0 -16 -25 -68 -55 -116 -60
-97 -83 -355 -38 -427 30 -48 5 -134 -32 -111 -14 9 -25 38 -25 64 0 128 -45
28 -60 -132 -10 -100 -23 -217 -31 -260 -11 -66 -4 -82 42 -97 66 -21 22 -61
-67 -62 -45 0 -53 -15 -55 -102 0 -56 -14 -117 -30 -136 -15 -19 -32 -120 -37
-225 -4 -109 -22 -206 -41 -230 -51 -60 -49 -2756 1 -2816 33 -40 56 -188 55
-352 -1 -41 17 -94 39 -118 22 -24 33 -62 25 -83 -8 -22 -8 -90 0 -151 18
-125 69 -150 95 -46 11 43 25 58 41 42 16 -16 15 -50 -3 -98 -15 -40 -21 -114
-13 -165 8 -50 4 -98 -9 -106 -22 -14 -9 -186 16 -214 6 -7 26 9 45 34 33 44
35 43 50 -25 9 -39 21 -86 26 -104 6 -17 -7 -38 -27 -46 -59 -23 -48 -159 13
-159 41 0 50 -17 50 -94 0 -54 32 -156 75 -241 41 -81 75 -165 75 -188 0 -22
22 -81 49 -131 26 -50 43 -96 37 -102 -6 -6 1 -45 15 -87 23 -64 39 -76 104
-73 42 2 82 -11 88 -28 6 -17 -7 -31 -29 -31 -61 0 -71 -59 -31 -178 45 -133
82 -149 105 -45 29 132 64 30 46 -133 -10 -96 -6 -144 11 -144 15 0 86 -119
158 -264 72 -146 151 -278 174 -295 24 -16 47 -57 52 -91 5 -37 29 -66 63 -74
96 -24 166 -141 151 -253 -8 -56 -3 -98 11 -98 14 0 59 -34 100 -75 41 -41 96
-75 121 -75 75 0 82 -46 9 -55 -94 -11 -101 -60 -16 -104 78 -40 232 -259 232
-332 1 -89 41 -122 74 -61 41 77 75 56 126 -80 43 -113 381 -479 503 -545 26
-13 47 -40 47 -59 0 -51 130 -189 178 -189 22 0 54 16 70 35 16 19 65 49 109
68 77 31 224 157 246 210 71 173 197 264 234 168 16 -41 19 -41 51 4 25 33 28
60 11 92 -63 117 20 208 101 110 37 -44 80 -47 119 -8 22 22 19 37 -14 61 -39
29 -31 43 76 142 85 79 119 129 119 177 0 92 69 115 125 41 60 -80 107 -6 66
103 -35 94 10 149 84 103 100 -63 191 -32 142 48 -25 40 -21 55 23 91 29 23
60 62 68 86 23 66 67 53 67 -21 0 -40 12 -60 31 -54 40 13 57 119 19 119 -17
0 -25 33 -20 81 7 80 9 81 124 74 117 -7 183 32 121 70 -56 34 -10 95 60 82
112 -22 155 10 88 65 l-58 47 77 39 c42 22 83 63 90 91 17 67 54 65 87 -5 24
-53 27 -53 44 -10 12 28 7 53 -11 65 -17 10 -27 51 -23 91 11 91 104 104 116
16 5 -31 17 -56 28 -56 35 0 73 116 50 152 -41 65 -27 148 26 148 26 0 55 -11
63 -25 17 -27 120 -34 145 -10 8 9 2 36 -14 62 -25 39 -13 60 77 143 73 68
105 118 105 164 0 92 69 115 125 41 60 -80 107 -6 66 103 -35 94 10 149 84
103 101 -63 191 -32 142 49 -25 42 -21 56 27 88 31 21 56 47 56 58 0 11 30 66
67 122 70 107 141 132 170 58 16 -41 18 -41 50 1 25 35 26 62 5 119 -46 122
18 155 137 69 65 -46 141 22 78 69 -41 31 -35 42 74 143 85 79 119 129 119
177 0 92 69 115 125 41 60 -80 107 -6 66 103 -35 94 10 149 84 103 100 -63
191 -32 142 48 -25 40 -21 55 23 91 29 23 60 62 68 86 23 66 67 53 67 -21 0
-40 12 -60 31 -54 40 13 57 119 19 119 -17 0 -25 33 -20 81 7 80 9 81 124 74
117 -7 183 32 121 70 -56 34 -10 95 60 82 112 -22 155 10 88 65 l-58 46 61 33
c103 55 194 162 203 239 10 89 93 116 113 37 8 -29 28 -52 46 -52 51 0 67 78
25 124 -21 23 -38 66 -38 94 0 64 -192 170 -239 131 -68 -56 -813 -31 -850 29
-19 30 -128 28 -188 -4 -61 -33 -158 13 -138 65 16 41 -40 45 -204 13 -115
-22 -169 9 -141 82 17 46 -75 60 -102 16 -39 -62 -274 -7 -249 58 15 37 -87
92 -171 92 -31 0 -88 17 -127 38 -39 20 -93 37 -119 37 -30 0 -47 18 -47 50 0
35 -17 50 -56 50 -31 0 -89 17 -128 38 -39 20 -94 37 -121 37 -28 0 -55 21
-62 47 -26 101 -233 125 -233 27 0 -13 -9 -24 -21 -24 -23 0 -129 202 -129
246 0 15 -44 51 -99 78 -54 28 -147 96 -206 151 -59 54 -121 100 -138 100 -42
0 -85 88 -67 136 11 27 1 39 -31 40 -26 0 -69 36 -96 80 -46 71 -143 146 -238
183 -85 33 -110 55 -154 136 -25 47 -62 95 -83 106 -21 12 -38 47 -38 78 0 32
-42 96 -98 152 -66 64 -98 117 -97 161 0 36 -13 99 -29 141 -28 70 -32 72 -64
28 -20 -28 -51 -41 -73 -32 -56 21 -48 66 11 66 39 0 50 17 50 74 0 91 -40
118 -97 66 -57 -52 -71 -50 -103 10 -23 43 -18 54 36 75 78 29 82 64 12 83
-39 10 -48 26 -37 63 11 34 0 61 -34 85 -54 38 -101 140 -116 254 -5 39 -27
91 -48 115 -22 23 -32 60 -24 82 9 25 -4 50 -37 67 -62 33 -67 97 -11 138 35
26 36 42 10 123 -51 155 -129 157 -133 4 -3 -82 -43 -133 -43 -54 0 20 -6 52
-14 72 -8 20 4 54 25 75 61 61 48 618 -14 618 -12 0 -22 -34 -22 -75 0 -107
-42 -93 -54 19 -11 107 15 1207 28 1169 5 -14 10 -48 11 -75 1 -28 19 -50 40
-50 47 0 38 131 -13 188 -47 52 -22 399 29 399 21 0 34 -28 34 -74 0 -98 44
-120 76 -37 20 54 17 78 -17 115 -37 40 -39 61 -15 128 16 44 37 131 46 193 9
62 28 127 42 145 14 17 25 64 23 104 -1 40 15 86 34 103 20 16 43 72 52 125 8
52 30 101 49 108 20 8 28 30 18 55 -9 24 -16 83 -16 133 0 85 4 90 85 91 97 1
131 77 62 135 -46 38 -51 76 -10 76 48 0 121 79 121 130 0 25 16 53 35 60 19
7 41 55 49 105 11 73 33 103 101 140 48 25 93 62 100 81 7 19 32 34 55 34 34
0 38 18 24 110 -17 116 27 193 53 93 15 -56 93 -72 122 -26 9 15 -9 54 -40 87
-47 49 -51 66 -25 98 46 54 101 47 101 -14 0 -74 85 -51 96 26 5 34 70 118
150 193 115 108 140 145 134 202 -5 49 12 88 55 129 61 57 65 58 130 15 54
-35 70 -37 87 -10 13 21 7 41 -16 54 -59 34 -43 93 27 93 34 0 62 -11 62 -25
0 -14 28 -25 63 -25 49 0 62 13 62 59 0 76 58 125 124 104 39 -13 56 -2 74 46
16 40 51 67 100 78 65 14 75 26 62 75 -16 64 44 113 138 113 72 0 69 89 -4
112 -51 16 -52 20 -10 30 25 7 59 0 74 -15 15 -15 54 -27 88 -27 34 0 75 -19
91 -41 17 -23 43 -34 59 -24 46 29 33 65 -23 65 -87 0 -39 62 54 71 47 4 96
18 109 31 13 13 66 23 118 23 68 0 102 14 120 49 23 41 44 46 149 34 105 -12
126 -7 149 36 18 35 44 46 87 38 33 -7 68 1 77 16 9 15 54 27 98 27 45 0 138
17 206 37 88 26 206 34 411 27 157 -6 318 -11 357 -12 113 -3 50 -52 -67 -52
-110 0 -626 -88 -667 -113 -13 -8 -78 -25 -143 -37 -65 -11 -197 -51 -293 -88
-97 -36 -215 -75 -264 -85 -48 -10 -139 -48 -202 -85 -63 -37 -128 -67 -146
-67 -17 0 -81 -34 -142 -75 -61 -41 -121 -75 -133 -75 -11 0 -76 -37 -142 -81
-67 -45 -161 -107 -209 -137 -48 -31 -110 -70 -137 -88 -77 -49 -337 -268
-468 -393 -65 -63 -132 -126 -150 -141 -75 -65 -510 -569 -533 -618 -14 -30
-56 -102 -93 -160 -38 -58 -69 -115 -69 -125 -1 -20 -127 -218 -175 -275 -14
-16 -25 -42 -25 -57 0 -15 -22 -71 -50 -125 -27 -54 -50 -116 -50 -139 0 -22
-23 -69 -50 -104 -28 -35 -50 -90 -50 -121 0 -32 -10 -64 -22 -72 -12 -7 -28
-44 -35 -82 -7 -38 -31 -114 -52 -169 -21 -55 -39 -142 -40 -193 -1 -51 -12
-99 -26 -107 -14 -9 -25 -53 -25 -97 0 -45 -19 -143 -43 -218 -53 -165 -60
-1255 -10 -1448 16 -62 36 -157 43 -211 7 -54 23 -116 34 -138 11 -21 28 -98
38 -170 10 -72 28 -137 40 -145 13 -8 23 -33 24 -56 0 -23 22 -87 49 -142 27
-55 49 -124 49 -152 1 -60 278 -609 419 -832 301 -475 1021 -1252 1163 -1253
24 -1 44 -17 44 -37 0 -19 59 -71 131 -114 72 -43 182 -111 244 -151 62 -41
143 -86 179 -101 37 -14 73 -43 81 -62 7 -20 40 -36 72 -36 32 0 71 -13 86
-28 37 -37 308 -147 362 -147 23 0 49 -11 56 -23 8 -13 79 -41 158 -63 79 -21
194 -55 256 -75 149 -47 441 -106 685 -138 134 -18 3853 -26 11783 -26 10674
1 11592 4 11665 42 l79 41 -62 23 c-34 13 -84 35 -109 49 -26 13 -108 31 -182
38 -75 8 -141 24 -149 36 -7 11 -45 21 -84 21 -40 0 -76 10 -80 21 -9 23 -503
154 -578 154 -25 0 -51 17 -59 38 -9 24 -48 37 -108 37 -116 0 -138 21 -85 79
40 44 38 46 -26 46 -37 0 -114 -23 -171 -50 -108 -52 -143 -39 -144 53 0 45
-140 122 -221 122 -28 0 -58 12 -68 27 -9 14 -30 21 -48 14 -17 -7 -87 15
-154 48 -67 33 -146 60 -176 60 -30 1 -61 11 -69 23 -8 13 -97 42 -199 64
-102 23 -231 63 -287 90 -55 27 -116 49 -135 49 -19 0 -42 8 -51 17 -10 9 -81
20 -159 24 -167 9 -215 41 -144 97 45 35 40 37 -70 22 -76 -10 -132 -5 -154
13 -19 16 -71 33 -116 39 -45 6 -93 22 -108 37 -14 14 -55 26 -90 26 -36 0
-87 15 -114 33 -27 18 -76 34 -108 36 -106 6 -182 74 -163 147 14 57 10 63
-37 48 -42 -14 -56 -4 -69 48 -30 122 -237 241 -497 287 -69 13 -170 34 -225
49 -55 14 -185 43 -288 63 -103 20 -272 54 -375 74 -103 20 -306 55 -450 78
-144 22 -352 56 -462 76 -111 20 -262 36 -338 36 -76 0 -199 17 -275 38 -76
20 -208 37 -295 37 -86 0 -238 16 -337 35 -99 20 -327 42 -505 50 -179 8 -438
26 -575 39 -138 13 -813 25 -1500 25 -1413 1 -1376 -2 -2000 208 -83 28 -161
60 -174 72 -13 11 -54 21 -91 21 -37 0 -81 17 -98 38 -17 20 -43 37 -57 37
-15 0 -106 40 -204 89 -179 90 -195 99 -376 211 -55 34 -131 76 -169 92 -38
17 -111 64 -163 105 -51 41 -146 112 -211 158 -440 310 -903 721 -1292 1147
-350 384 -514 573 -525 602 -5 14 -44 64 -87 110 -43 47 -90 99 -103 117 -93
119 -325 383 -462 527 -342 357 -1002 992 -1032 992 -10 0 -19 11 -19 25 0 38
90 30 124 -12 17 -20 70 -44 117 -53 47 -9 97 -38 112 -65 17 -32 43 -45 75
-37 26 7 64 -3 83 -23 20 -19 70 -35 112 -35 53 0 77 -12 77 -39 0 -30 18 -35
88 -22 77 15 87 11 87 -36 0 -29 -11 -53 -25 -53 -14 0 -25 -11 -25 -25 0 -15
19 -13 48 5 43 27 67 11 207 -133 86 -90 177 -171 201 -180 24 -8 44 -38 44
-66 0 -28 11 -51 25 -51 14 0 25 -22 25 -50 0 -34 17 -50 51 -50 31 0 60 -25
75 -65 16 -41 38 -60 60 -51 40 15 199 -148 225 -230 9 -28 41 -54 71 -59 32
-4 59 -29 64 -57 4 -28 25 -63 45 -79 21 -17 33 -59 29 -99 -7 -62 4 -73 86
-97 78 -22 106 -50 165 -163 123 -234 217 -383 248 -394 58 -19 31 83 -44 165
-41 45 -75 93 -75 106 0 35 45 28 68 -12 11 -19 41 -38 67 -43 46 -9 123 -110
156 -203 8 -24 23 -44 33 -44 10 0 51 -51 90 -113 40 -63 97 -120 127 -128 30
-7 61 -32 68 -55 8 -23 25 -58 38 -79 14 -21 30 -57 38 -81 9 -29 39 -44 89
-44 68 0 76 -8 76 -75 0 -68 7 -74 60 -61 47 12 64 3 77 -37 9 -29 32 -52 52
-52 20 0 58 -22 84 -48 27 -27 72 -61 100 -76 29 -15 52 -44 52 -64 0 -51 117
-48 145 4 13 23 36 33 52 23 20 -12 14 -37 -22 -82 -70 -89 -63 -116 27 -98
68 14 74 10 60 -34 -10 -32 -4 -50 17 -50 71 0 619 -289 630 -332 9 -34 27
-41 74 -29 53 13 64 6 71 -43 7 -49 24 -59 109 -63 55 -2 112 -5 128 -6 15 -1
34 -24 41 -52 11 -39 34 -50 113 -50 55 0 132 -17 171 -37 39 -21 96 -38 126
-38 30 0 61 -10 69 -22 7 -12 75 -30 151 -39 75 -10 144 -29 153 -42 8 -14
118 -26 244 -27 2171 -17 2425 -21 2455 -47 21 -16 164 -26 378 -26 513 2 858
-16 894 -46 18 -15 67 -19 114 -10 62 13 87 6 105 -25 19 -34 61 -42 228 -41
439 4 589 -13 643 -70 53 -57 80 -54 214 25 69 41 82 42 109 8 26 -30 24 -40
-9 -53 -77 -30 -39 -54 113 -71 143 -16 158 -13 221 47 59 57 79 63 165 45
126 -26 154 -106 38 -106 -42 0 -77 -11 -77 -25 0 -14 39 -25 86 -25 47 0 93
11 102 25 24 40 141 29 194 -19 34 -31 91 -44 192 -44 87 0 162 -15 187 -36
23 -19 103 -40 177 -46 167 -14 306 92 276 211 -11 44 -3 80 27 113 28 31 47
103 54 203 6 86 21 168 33 183 12 15 15 62 7 105 -10 47 -1 106 23 154 63 126
80 291 32 309 -50 19 -50 89 -2 153 20 27 37 74 37 105 0 31 11 63 25 72 14 8
19 41 11 73 -8 32 -3 66 11 75 19 11 18 31 -2 63 -23 36 -22 55 1 83 23 29 22
43 -8 68 -62 51 -52 250 13 250 46 0 50 14 46 165 -3 112 -15 169 -38 177 -39
15 -47 185 -10 222 67 68 88 1249 113 6624 13 2787 -3 2577 237 3150 11 27 33
95 48 150 32 120 91 208 120 179 42 -42 38 -9781 -4 -10249 -21 -231 -38 -490
-38 -575 0 -86 -17 -251 -37 -368 -21 -117 -38 -257 -38 -312 0 -55 -16 -196
-36 -313 -62 -364 -152 -953 -179 -1175 -8 -62 -30 -157 -49 -212 -19 -55 -38
-145 -42 -200 l-6 -100 141 8 c82 4 148 -3 157 -19 9 -15 46 -27 81 -27 35 0
116 -16 180 -36 63 -19 177 -53 253 -74 624 -177 848 -247 1188 -368 41 -14
108 -35 150 -46 41 -10 149 -48 239 -85 90 -36 177 -66 193 -66 16 0 65 -16
110 -35 46 -19 128 -52 183 -72 131 -49 312 -119 375 -145 27 -11 111 -45 187
-74 76 -30 208 -87 293 -126 86 -40 172 -73 191 -73 19 0 49 -17 66 -38 17
-20 47 -37 66 -37 39 0 1006 -443 1045 -478 23 -21 -361 -815 -597 -1234 -62
-110 -120 -217 -130 -238 -163 -339 -1068 -1675 -1217 -1797 -23 -19 -42 -47
-42 -64 0 -54 -120 -197 -690 -825 l-228 -251 -2797 0 c-2470 0 -2824 -5
-3022 -41 -299 -54 -460 -94 -546 -137 -39 -19 -81 -35 -93 -35 -42 0 -401
-177 -570 -280 -552 -338 -1006 -836 -1327 -1457 -117 -225 -108 -272 45 -249
86 13 483 27 958 33 l218 3 157 166 c87 91 191 201 233 246 41 44 121 130 177
191 56 60 115 135 132 166 16 31 51 56 78 56 26 0 60 20 75 44 22 36 25 30 13
-31 -7 -42 -24 -205 -36 -363 -13 -158 -31 -306 -40 -329 -19 -51 -80 -78
-100 -45 -19 31 -328 6 -398 -32 -49 -26 -48 -29 22 -48 80 -21 343 -12 385
14 14 9 33 4 41 -10 22 -34 142 -30 188 7 21 17 68 76 104 131 37 55 161 201
277 326 115 125 226 250 246 278 19 28 83 75 142 105 58 30 106 65 106 79 0
13 11 24 25 24 44 0 27 -116 -24 -162 -67 -61 -119 -238 -137 -475 -9 -110
-19 -229 -21 -263 -9 -104 117 -102 170 2 23 44 124 165 224 270 100 105 242
255 314 334 163 177 199 183 199 31 0 -184 -52 -597 -79 -630 -35 -42 -4 -82
63 -82 39 0 103 54 202 169 296 342 613 660 641 642 28 -17 21 -285 -19 -667
-20 -200 39 -197 215 11 205 242 617 667 655 675 28 6 35 -69 35 -405 l0 -412
124 0 c177 0 180 -59 8 -146 -73 -36 -189 -100 -257 -141 -69 -41 -148 -87
-175 -101 -28 -14 -84 -47 -125 -74 -42 -26 -154 -89 -250 -140 -97 -51 -193
-108 -215 -127 -22 -18 -58 -34 -80 -34 -22 0 -47 -11 -55 -24 -8 -13 -135
-81 -283 -152 -147 -70 -284 -138 -305 -151 -21 -13 -54 -30 -75 -38 -39 -15
-69 -29 -356 -159 -93 -42 -181 -76 -196 -76 -15 0 -58 -16 -94 -35 -69 -36
-400 -171 -554 -226 -238 -85 -495 -171 -562 -189 -75 -20 -143 -42 -313 -100
-48 -16 -127 -39 -175 -50 -48 -12 -200 -50 -337 -86 -138 -35 -273 -64 -301
-64 -28 0 -79 -19 -112 -43 -60 -42 -135 -57 -531 -105 -106 -13 -204 -30
-218 -39 -14 -8 -107 -25 -207 -38 -100 -12 -373 -45 -606 -74 -454 -56 -1154
-104 -1463 -100 -103 1 -2066 3 -4362 3 -2297 1 -4322 10 -4500 22 -365 22
-973 86 -1095 114 -44 10 -113 16 -152 14 -39 -3 -108 18 -153 45 -45 28 -112
51 -149 51 -37 0 -89 12 -115 26 -27 14 -96 35 -155 47 -188 38 -655 157 -694
176 -71 35 -60 122 17 142 39 9 104 38 146 63 41 24 116 68 167 95 108 59 468
308 677 469 l145 111 2193 6 c1835 5 2258 13 2593 47 530 55 1025 139 1212
205 48 17 127 45 175 62 48 18 118 37 155 44 38 7 81 28 97 47 16 19 47 35 68
35 21 0 118 40 216 89 180 91 198 101 376 211 55 34 112 68 126 75 67 34 382
254 436 305 33 31 113 97 177 145 235 177 609 517 1087 986 278 274 717 634
818 671 24 9 44 28 44 42 0 14 12 26 27 26 14 0 62 27 106 60 169 128 763 428
1142 577 62 25 148 60 191 79 44 19 95 34 114 34 19 0 46 9 59 21 48 43 725
239 967 281 65 11 131 27 145 36 15 9 85 26 157 38 71 12 186 33 255 47 289
58 582 102 687 104 62 0 169 13 238 28 84 19 1340 32 3920 42 l3795 16 48 62
c42 55 43 66 10 91 -65 49 -18 229 93 356 98 112 132 192 52 123 -24 -21 -69
-59 -100 -85 -31 -25 -56 -60 -56 -78 0 -18 -17 -32 -37 -32 -83 0 -29 104
150 289 103 107 195 220 203 253 8 34 33 58 60 58 69 0 83 45 37 116 -40 61
-40 66 14 124 69 73 98 76 98 10 0 -96 39 -49 146 176 60 124 136 255 169 291
33 36 74 112 90 168 17 56 51 117 75 135 25 18 45 64 45 104 0 40 8 76 19 80
52 23 131 175 118 227 -12 46 0 62 60 85 58 22 81 52 103 137 17 60 39 128 51
151 15 28 9 52 -16 73 -20 17 -32 45 -25 63 30 79 -62 83 -2194 90 -2012 7
-2146 10 -2169 51 -23 41 -113 44 -1354 43 l-1330 -1 -100 -61 c-55 -34 -125
-62 -154 -62 -32 0 -58 -20 -66 -50 -18 -67 -121 -66 -183 3 -41 45 -67 51
-190 40 -140 -13 -142 -12 -158 60 -15 66 -25 72 -126 72 -87 0 -106 -8 -95
-37 9 -25 -1 -38 -28 -38 -28 0 -38 13 -29 38 13 33 -590 37 -5334 37 -4744 0
-5347 -4 -5334 -37 13 -34 -135 -38 -1239 -38 -928 0 -1265 -8 -1300 -30 -38
-23 -63 -23 -114 0 -89 41 -107 38 -125 -20 -24 -75 -63 -60 -63 25 0 72 -4
75 -112 75 -126 0 -136 -11 -61 -71 70 -57 40 -129 -53 -129 -50 0 -76 -15
-87 -53 -26 -82 -58 -114 -2815 -2877 -1425 -1427 -2661 -2671 -2748 -2764
-160 -171 -205 -276 -146 -347 21 -25 20 -53 -2 -107 -17 -40 -28 -105 -25
-144 7 -106 4 -109 -64 -83 -58 22 -62 19 -48 -36 10 -38 2 -67 -22 -80 -20
-12 -41 -44 -46 -71 -7 -38 -32 -52 -102 -58 -103 -9 -133 -75 -44 -98 55 -14
77 -257 23 -257 -14 0 -23 20 -19 44 11 71 -120 195 -166 156 -49 -40 -48 -75
4 -112 24 -18 35 -48 25 -72 -22 -58 -92 -51 -92 9 0 70 -41 62 -60 -11 -8
-34 -72 -120 -140 -192 -109 -113 -124 -141 -112 -208 7 -42 3 -110 -10 -151
-18 -56 -24 -62 -26 -24 -3 69 -113 172 -163 153 -32 -13 -34 -27 -11 -77 31
-66 16 -140 -28 -140 -14 0 -37 29 -51 64 -28 75 -74 59 -74 -26 0 -98 -167
-263 -267 -263 -66 0 -83 -10 -83 -50 0 -33 17 -50 49 -50 65 0 83 -36 63
-125 l-16 -74 -65 81 c-36 44 -68 84 -71 89 -10 15 -110 -47 -110 -69 0 -12
23 -27 52 -35 79 -20 56 -129 -27 -129 -51 0 -61 10 -54 59 5 38 -3 55 -23 48
-17 -6 -33 -38 -34 -71 -5 -87 -184 -269 -275 -279 -86 -9 -112 -58 -40 -77
43 -11 51 -33 51 -142 0 -76 -10 -123 -24 -114 -13 8 -17 32 -9 53 9 25 -3 43
-37 51 -28 8 -58 30 -65 49 -34 88 -95 37 -78 -65 14 -82 10 -100 -22 -100
-22 0 -40 11 -40 25 0 51 -52 23 -77 -42 -40 -105 -190 -233 -275 -233 -56 0
-73 -11 -73 -50 0 -36 15 -48 56 -43 52 5 57 -6 64 -138 6 -117 0 -144 -31
-144 -22 0 -39 21 -39 46 0 53 -80 154 -122 154 -39 0 -35 -26 13 -79 23 -25
43 -77 44 -115 2 -67 7 -69 202 -88 158 -16 205 -13 225 14 71 96 249 121 403
56 151 -63 523 -37 523 37 0 29 40 38 187 42 103 3 226 6 274 8 48 2 102 15
120 31 19 15 116 30 216 32 119 4 203 19 244 46 34 23 70 34 79 25 9 -9 32 -2
52 14 21 17 57 27 82 23 25 -4 62 4 83 17 21 13 85 24 143 25 80 1 122 17 176
69 67 64 80 67 195 46 68 -13 169 -14 224 -3 92 18 94 19 21 22 -78 3 -148 55
-117 87 26 26 232 19 286 -11 27 -14 74 -21 105 -15 l55 11 -57 18 c-84 28
-74 97 13 80 93 -19 445 68 590 145 65 35 138 63 161 63 23 0 109 34 190 75
81 41 167 75 192 75 24 0 48 19 52 42 7 34 41 43 175 48 183 6 271 26 271 62
0 13 -27 23 -61 23 -72 0 -110 47 -61 77 37 23 145 5 183 -30 32 -29 132 -28
150 1 8 13 1 32 -15 42 -35 22 189 133 271 134 30 1 62 12 70 26 21 34 93 31
213 -6 116 -36 123 -62 39 -153 -58 -62 -628 -391 -679 -391 -12 0 -112 -44
-222 -96 -365 -175 -802 -354 -865 -354 -21 0 -50 -12 -65 -27 -15 -15 -65
-36 -111 -48 -47 -11 -146 -45 -222 -75 -76 -30 -194 -69 -262 -87 -69 -18
-187 -51 -263 -72 -1131 -323 -2285 -485 -3550 -500 -789 -9 -1009 3 -1019 59
-4 21 71 105 167 188 95 82 860 836 1699 1676 1700 1701 1795 1793 1866 1812
95 26 72 110 -65 239 -351 334 -722 721 -847 885 -47 62 -103 131 -125 153
-99 103 -157 179 -386 510 -29 41 -58 80 -65 87 -42 42 -438 676 -483 775 -10
21 -52 94 -94 163 -83 136 -387 758 -458 937 -25 62 -57 134 -71 161 -14 26
-34 77 -45 112 -11 36 -44 126 -73 202 -102 263 -301 894 -301 954 0 22 -16
95 -35 162 -20 67 -53 206 -74 309 -21 103 -52 249 -67 325 -16 76 -38 216
-49 313 -12 96 -34 270 -50 387 -81 586 -63 1855 36 2604 36 274 53 367 119
646 15 62 35 158 45 213 29 155 94 408 191 737 43 145 76 240 147 425 23 62
57 152 75 200 224 605 607 1369 945 1888 327 500 439 660 536 763 l81 87 -1
4147 c0 2281 4 4151 9 4157 6 5 4495 9 9976 8 l9967 0 156 120 c160 124 576
408 643 438 21 10 94 52 163 93 136 83 915 466 1075 529 333 132 698 264 762
278 34 7 164 43 288 79 293 84 455 125 700 175 110 23 250 52 312 65 222 45
959 122 1021 106 18 -4 72 -8 120 -8z m-5030 -2264 c71 -70 82 -111 29 -111
-35 0 -115 103 -115 149 0 39 17 32 86 -38z m-7641 -1504 c-12 -66 -95 -73
-95 -9 0 36 16 52 52 52 36 0 49 -13 43 -43z m-613 -573 c24 -23 -31 -113 -58
-96 -36 23 -29 112 9 112 19 0 41 -7 49 -16z m-600 -600 c24 -23 -31 -113 -58
-96 -36 23 -29 112 9 112 19 0 41 -7 49 -16z m-574 -601 c19 -18 -53 -108 -87
-108 -11 0 -21 28 -21 63 0 60 66 88 108 45z m2684 -796 c19 -76 32 -279 33
-523 0 -227 12 -431 28 -475 23 -63 17 -106 -32 -251 -79 -236 -131 -309 -193
-271 -40 25 -51 20 -76 -34 -28 -63 -30 -63 -79 -18 -42 38 -59 40 -100 14
-38 -23 -399 -30 -1545 -28 -822 1 -1524 -5 -1559 -14 -69 -17 -469 80 -469
114 0 30 140 57 338 63 534 19 3402 6 3423 -15 84 -84 94 3 90 795 -2 402 3
743 12 757 37 60 97 7 129 -114z m-3047 -327 c-128 -133 -298 -305 -378 -382
-80 -77 -222 -214 -315 -303 -218 -210 -327 -290 -327 -239 0 20 -18 47 -40
59 -35 19 -32 30 22 89 34 36 74 66 90 66 18 0 26 38 22 104 -4 65 5 107 25
114 20 7 31 -13 31 -55 0 -43 11 -63 31 -57 20 7 32 61 32 146 0 112 8 136 47
144 41 8 44 -2 30 -81 -22 -114 26 -121 98 -15 27 41 58 75 68 75 11 0 19 11
19 25 0 14 -16 25 -36 25 -73 0 -64 52 26 141 82 83 99 90 159 67 51 -19 80
-17 113 7 25 18 57 37 71 42 14 5 18 22 7 38 -13 22 -32 23 -67 4 -38 -20 -52
-17 -64 14 -23 60 25 97 86 65 39 -21 72 -14 158 35 60 34 145 79 189 99 44
21 89 51 99 69 15 23 23 20 29 -12 5 -27 -77 -132 -225 -284z m-7633 -759 c8
-13 -8 -35 -35 -50 -68 -36 -77 -33 -77 24 0 52 84 72 112 26z m-137 -95 c-1
-46 -45 -81 -83 -67 -65 25 -51 86 21 86 34 0 62 -8 62 -19z m3225 -593 c0
-25 -25 -38 -74 -38 -78 0 -122 37 -70 58 67 27 144 16 144 -20z m14112 -22
c29 40 43 32 154 -81 67 -68 165 -157 218 -197 84 -63 91 -76 56 -102 -59 -43
-49 -64 29 -56 58 6 70 -3 76 -62 l8 -69 111 80 c121 87 172 83 89 -7 -29 -31
-53 -69 -53 -84 0 -35 162 -188 200 -188 48 0 275 -230 275 -280 0 -65 75 -88
114 -35 26 36 42 39 85 16 60 -33 46 -76 -25 -76 -27 0 -49 -11 -49 -24 0 -32
170 -201 201 -201 50 0 205 -165 242 -256 37 -94 132 -135 132 -58 0 58 51 73
96 28 39 -39 37 -45 -21 -89 l-62 -47 96 -89 c54 -49 106 -89 117 -89 40 0
225 -186 214 -215 -6 -17 10 -50 36 -73 45 -41 51 -41 113 -1 81 53 104 34 70
-57 -23 -61 -16 -80 54 -162 44 -50 93 -92 108 -92 16 0 73 -44 126 -97 53
-53 112 -102 130 -108 18 -6 34 -44 34 -84 2 -96 92 -105 114 -11 8 34 34 66
57 70 58 11 54 -27 -7 -82 -62 -56 -63 -100 -6 -143 24 -18 58 -64 75 -103 23
-51 44 -66 76 -56 55 17 207 -135 254 -255 34 -85 85 -105 119 -47 21 37 132
81 132 53 0 -9 -24 -50 -53 -91 l-53 -75 84 -85 c47 -46 99 -85 116 -85 17 -1
76 -46 131 -101 55 -55 111 -100 125 -100 14 0 25 -28 25 -62 0 -46 -13 -63
-50 -63 -27 0 -50 -10 -50 -22 0 -46 104 -150 157 -158 37 -5 58 -28 64 -69 5
-34 27 -75 49 -91 36 -26 36 -35 -3 -94 -23 -35 -42 -80 -42 -99 0 -53 -129
-185 -200 -205 -34 -10 -78 -31 -98 -46 -19 -16 -114 -28 -210 -28 -118 0
-178 -11 -186 -32 -7 -21 21 -31 90 -31 56 0 108 -11 117 -25 9 -16 -54 -25
-173 -25 -103 0 -194 11 -202 25 -25 39 -340 31 -373 -9 -21 -27 -63 -31 -177
-17 -83 10 -224 9 -313 -4 -89 -12 -233 -29 -319 -37 -86 -8 -156 -25 -156
-36 0 -41 -590 -26 -625 16 -45 53 -147 46 -196 -15 -48 -58 -115 -45 -156 30
-33 62 -298 70 -298 10 0 -47 -47 -50 -64 -5 -19 48 -237 46 -292 -3 -45 -39
-98 -13 -181 89 -14 17 -124 41 -244 53 -120 12 -235 35 -255 52 -20 17 -58
23 -84 15 -26 -8 -80 2 -120 23 -40 21 -97 38 -127 38 -30 0 -62 11 -70 25 -9
14 -47 25 -84 25 -37 0 -90 15 -117 34 -27 19 -107 43 -178 52 -113 16 -127
24 -115 69 12 47 5 50 -97 38 -76 -9 -140 2 -209 33 -55 26 -120 52 -144 59
-24 8 -44 37 -44 67 0 39 -11 49 -40 38 -147 -56 -256 -14 -185 73 20 23 21
37 5 37 -15 0 -34 -11 -42 -25 -27 -42 -158 -30 -167 16 -5 22 -65 70 -133
107 -97 51 -128 82 -138 138 -14 82 -67 113 -90 54 -24 -61 -108 -48 -140 23
-30 66 -68 79 -112 35 -19 -19 -34 -5 -53 48 -32 92 -269 339 -305 317 -49
-31 -178 128 -161 198 12 45 6 64 -18 65 -18 0 -66 34 -106 75 -41 41 -84 74
-97 74 -13 0 -57 28 -98 63 -92 77 -155 79 -207 6 -33 -48 -43 -51 -63 -19
-43 67 -28 123 38 140 83 21 80 92 -7 160 -45 36 -73 85 -81 146 l-12 92 -188
17 c-103 9 -1221 17 -2483 16 -2057 0 -2301 4 -2340 40 -24 21 -50 39 -59 39
-9 0 -58 29 -111 65 -52 36 -117 75 -144 87 -28 13 -67 33 -88 46 -21 13 -54
30 -75 38 -21 7 -54 23 -75 35 -38 22 -155 74 -286 128 -310 125 -1046 276
-1352 276 l-91 0 7 -420 c7 -447 1 -480 -88 -480 -69 0 -341 -91 -376 -126
-13 -13 -39 -24 -58 -24 -49 0 -475 -274 -604 -389 -220 -195 -319 -302 -459
-492 -79 -106 -143 -201 -143 -211 0 -9 -15 -34 -33 -56 -84 -99 -246 -543
-260 -710 -16 -185 -54 -231 -128 -157 -36 36 -41 96 -35 447 14 900 290 1576
893 2182 168 169 550 454 687 513 35 14 117 54 184 87 67 34 138 61 158 61 21
0 62 14 92 31 68 38 279 89 492 120 202 28 3812 30 4091 2 111 -12 216 -30
233 -40 17 -10 95 -28 172 -40 78 -11 209 -38 292 -58 373 -95 370 -93 637
-189 48 -18 118 -37 155 -44 38 -7 81 -28 97 -47 16 -19 43 -35 59 -35 74 0
643 -272 989 -472 76 -43 168 -93 206 -109 38 -17 69 -44 69 -60 0 -30 201
-209 234 -209 43 0 364 -282 749 -656 152 -148 286 -269 298 -269 13 0 71 -39
130 -87 59 -49 120 -88 136 -88 17 0 61 -21 98 -47 161 -112 351 -225 468
-277 68 -31 166 -77 217 -103 51 -27 110 -48 132 -48 21 0 58 -10 82 -22 24
-13 94 -42 156 -65 62 -24 134 -54 160 -68 145 -76 798 -223 1203 -270 110
-12 261 -34 337 -48 439 -79 2199 -82 2500 -3 128 34 766 106 919 104 113 -1
136 7 172 61 24 37 32 72 19 83 -12 11 -56 45 -97 76 -215 161 -1338 1258
-1338 1306 0 12 -9 21 -20 21 -11 0 -165 146 -344 325 -178 179 -423 423 -546
544 -122 120 -234 232 -250 250 -15 17 -150 152 -299 300 -150 147 -285 283
-300 300 -16 17 -123 124 -239 238 -530 520 -923 928 -985 1026 -72 112 -39
153 72 91 86 -48 93 -49 123 -8z m-13529 -279 c3 -14 -38 -28 -89 -32 -108 -9
-129 36 -25 52 89 13 109 10 114 -20z m-294 -85 c-8 -12 -81 -30 -163 -39 -82
-10 -162 -33 -178 -53 -16 -19 -50 -35 -76 -35 -30 0 -47 -18 -47 -50 0 -36
-17 -50 -57 -50 -32 0 -70 -12 -86 -28 -15 -15 -65 -35 -111 -44 -55 -12 -86
-34 -92 -66 -17 -92 -154 -169 -154 -87 0 14 -34 25 -75 25 -50 0 -75 -12 -75
-37 0 -24 24 -38 63 -38 34 0 62 -12 62 -26 0 -16 -33 -20 -87 -10 -58 11 -88
7 -88 -11 0 -50 -99 -128 -162 -128 -61 0 -132 -82 -235 -270 -46 -84 -155
-178 -208 -179 -24 -1 -56 -24 -71 -52 -15 -28 -55 -62 -89 -75 -39 -15 -66
-49 -76 -97 -8 -41 -36 -94 -62 -117 -26 -24 -47 -61 -47 -84 0 -22 -13 -54
-28 -69 -22 -22 -18 -39 12 -70 46 -46 52 -77 18 -98 -13 -8 -30 6 -38 32 -21
65 -105 137 -137 118 -18 -11 -14 -42 13 -94 46 -89 30 -272 -29 -321 -20 -17
-36 -60 -37 -96 -1 -61 -3 -63 -35 -20 -74 98 -127 42 -121 -128 5 -128 0
-155 -34 -155 -32 0 -37 -16 -24 -79 11 -57 3 -93 -29 -128 -61 -68 -67 -1557
-6 -1630 20 -25 39 -78 41 -118 2 -40 20 -91 41 -115 21 -23 37 -74 37 -112 0
-38 18 -90 40 -114 31 -35 34 -51 11 -74 -23 -23 -23 -37 0 -60 16 -16 30 -49
30 -72 0 -47 92 -173 127 -173 13 0 23 17 23 38 0 20 11 37 25 37 35 0 31 -69
-4 -81 -19 -6 -23 -27 -10 -58 18 -46 20 -46 45 8 15 31 43 56 62 56 22 0 33
-22 30 -56 -11 -106 29 -189 105 -220 45 -19 88 -64 110 -116 31 -74 43 -82
102 -68 61 16 66 12 53 -40 -20 -77 45 -200 106 -200 27 0 55 -11 64 -25 8
-14 35 -25 59 -25 70 0 160 -108 122 -147 -25 -25 4 -30 149 -23 170 7 265
-32 120 -50 -86 -11 -80 -53 10 -71 41 -8 99 -41 130 -74 49 -53 222 -90 222
-47 0 48 -101 103 -171 93 -67 -10 -79 -4 -79 41 0 63 101 75 148 18 16 -20
96 -43 178 -53 99 -11 149 -28 149 -50 0 -49 -47 -71 -85 -39 -24 20 -43 15
-75 -21 -52 -57 -36 -69 125 -91 98 -13 132 -8 158 24 41 49 102 52 102 5 0
-62 123 -118 274 -124 80 -3 164 -20 186 -39 30 -24 128 -35 342 -37 260 -2
305 -9 326 -46 24 -43 75 -62 69 -25 -8 52 7 81 42 81 21 0 55 39 75 88 38 91
136 125 136 48 0 -69 -50 -136 -101 -136 -32 0 -49 -17 -49 -50 0 -42 17 -50
99 -50 74 0 106 13 126 50 37 69 199 71 217 3 14 -53 106 -44 140 13 28 46
119 43 153 -5 18 -23 46 -32 72 -22 58 22 54 48 -13 80 -43 21 -46 28 -14 29
23 1 49 25 58 52 8 28 26 50 39 50 50 0 19 43 -58 81 -157 77 -619 526 -619
602 0 23 -18 44 -162 195 -35 36 -63 79 -63 95 0 17 -27 66 -61 110 -33 44
-68 113 -78 155 -10 41 -30 91 -46 112 -66 88 -105 193 -100 275 2 48 5 118 7
156 4 81 41 92 61 17 7 -28 37 -58 65 -65 30 -8 52 -34 52 -62 0 -26 25 -81
55 -122 42 -58 48 -81 25 -104 -17 -17 -30 -45 -30 -63 0 -40 144 -189 224
-231 39 -21 51 -45 41 -78 -47 -153 -49 -163 -11 -115 22 28 51 39 78 28 59
-23 54 -86 -7 -86 -56 0 -66 -49 -20 -95 46 -46 95 -36 95 20 0 33 17 50 50
50 37 0 50 -17 50 -62 0 -39 -14 -63 -37 -63 -24 0 -38 -24 -38 -62 0 -77 73
-87 93 -13 19 75 57 60 57 -23 0 -116 76 -227 155 -227 54 0 68 -13 75 -68 5
-49 28 -76 76 -92 85 -30 119 -2 55 47 -61 46 -7 94 81 72 63 -16 139 118 143
250 2 46 23 86 59 110 66 44 71 97 16 159 -37 40 -36 48 9 97 42 45 52 47 65
14 32 -84 88 -40 104 80 9 65 23 135 31 156 27 66 50 908 60 2188 0 84 15 141
46 175 56 62 150 238 150 280 0 18 10 32 23 32 47 0 55 -286 44 -1462 -10
-1159 -25 -1389 -95 -1500 -9 -14 -25 -65 -35 -113 -28 -130 -174 -464 -213
-488 -13 -8 -24 -40 -24 -71 0 -31 -13 -69 -28 -84 -15 -15 -41 -50 -56 -78
-90 -159 -184 -277 -220 -278 -23 -1 -65 -38 -92 -82 -28 -45 -84 -114 -125
-153 l-75 -72 -483 15 c-712 22 -1399 107 -1552 192 -24 13 -64 24 -89 24 -70
0 -499 148 -655 225 -383 191 -653 354 -766 461 -29 29 -88 80 -131 114 -135
107 -364 350 -408 433 -23 44 -52 91 -64 105 -49 57 -275 480 -287 537 -14 62
-46 157 -109 325 -18 48 -38 144 -44 213 -7 68 -25 199 -40 289 -60 349 14
1253 129 1573 27 76 59 186 72 245 12 59 39 132 60 162 21 30 38 73 38 95 0
23 21 68 47 101 25 33 54 86 65 119 10 32 51 105 92 162 40 57 108 157 149
222 42 66 87 119 100 119 13 0 31 20 39 44 33 90 613 606 682 606 15 0 59 21
96 46 202 139 473 278 543 279 27 0 83 18 125 40 175 93 695 183 651 112z
m14711 -216 c0 -67 -43 -83 -66 -23 -19 50 9 119 41 100 14 -9 25 -43 25 -77z
m-17251 -55 c-1 -40 -121 -107 -139 -77 -10 16 3 44 28 62 51 37 112 45 111
15z m-1985 -275 c84 -121 -35 -55 -136 75 -32 42 -30 42 33 9 38 -19 84 -57
103 -84z m19836 -283 c0 -61 -58 -52 -71 10 -4 25 8 42 32 42 23 0 39 -21 39
-52z m600 -600 c0 -61 -58 -52 -71 10 -4 25 8 42 32 42 23 0 39 -21 39 -52z
m-21600 -298 c0 -26 -10 -54 -23 -61 -29 -18 -61 76 -39 111 22 37 62 5 62
-50z m1394 -144 c13 -41 -65 -70 -99 -36 -14 14 -18 38 -8 54 22 36 93 24 107
-18z m20815 -93 c17 -44 -5 -113 -35 -113 -36 0 -53 48 -36 100 18 59 51 65
71 13z m-22234 -309 c0 -39 -42 -72 -162 -126 -14 -6 9 29 50 79 85 102 112
113 112 47z m16062 -553 c8 -13 -8 -35 -35 -50 -52 -28 -93 3 -64 49 19 32 79
32 99 1z m228 -120 c46 -60 43 -81 -12 -81 -45 0 -88 82 -59 111 23 22 36 17
71 -30z m7135 -270 c0 -67 -43 -83 -66 -23 -19 50 9 119 41 100 14 -9 25 -43
25 -77z m391 -549 c17 -43 -36 -118 -69 -98 -12 8 -22 41 -22 75 0 68 67 85
91 23z m196 -187 c-15 -25 -112 -36 -112 -12 0 6 20 32 44 57 45 47 102 10 68
-45z m21 -210 c16 -41 -3 -65 -50 -65 -18 0 -33 23 -33 50 0 57 63 68 83 15z
m-4433 -465 c0 -14 -51 -25 -114 -25 -70 0 -108 10 -98 25 8 14 59 25 113 25
55 0 99 -11 99 -25z m-11555 -334 c-8 -91 -28 -152 -65 -192 -64 -68 -73 -25
-14 65 27 41 36 91 27 147 -14 85 -4 114 39 114 14 0 19 -58 13 -134z m6230
99 c0 -19 24 -40 53 -48 54 -14 55 -69 0 -87 -17 -6 -37 13 -45 42 -8 29 -29
53 -48 53 -19 0 -35 17 -35 38 0 20 17 37 38 37 20 0 37 -16 37 -35z m-7330
-122 c10 -51 -62 -86 -100 -48 -38 38 -3 110 48 100 24 -4 48 -28 52 -52z
m151 -195 c18 -29 26 -59 19 -66 -21 -21 -90 44 -90 84 0 50 33 42 71 -18z
m129 -273 c0 -28 -17 -50 -37 -50 -39 0 -52 53 -21 83 31 32 58 17 58 -33z
m-6450 -64 c0 -67 -43 -83 -66 -23 -19 50 9 119 41 100 14 -9 25 -43 25 -77z
m15450 -623 c0 -40 -88 -53 -110 -16 -19 29 10 53 64 53 25 0 46 -17 46 -37z
m-10125 -3612 c0 -43 -42 -94 -61 -72 -43 48 -37 121 9 121 35 0 52 -16 52
-49z m750 -148 c0 -26 17 -61 38 -78 21 -18 37 -72 37 -129 0 -64 13 -103 38
-112 33 -13 37 -339 37 -2731 0 -2689 0 -2716 -50 -2747 -59 -37 -66 -126 -12
-147 42 -16 51 -147 12 -172 -14 -8 -25 -41 -25 -74 0 -78 -126 -318 -174
-331 -21 -5 -65 -50 -97 -99 -43 -65 -66 -81 -86 -61 -47 47 -108 31 -138 -34
-28 -62 -113 -86 -141 -41 -8 13 93 130 224 261 130 131 237 253 238 271 0 19
0 1321 -1 2895 -1 2784 13 3376 78 3376 12 0 22 -21 22 -47z m14642 -59 c10
-17 25 -82 32 -144 13 -107 17 -113 101 -121 116 -10 148 -44 86 -90 -48 -35
-48 -36 0 -54 30 -12 52 -8 58 11 16 47 68 34 131 -33 40 -43 75 -58 113 -48
49 12 116 -27 141 -83 5 -11 98 -65 209 -121 140 -71 201 -116 203 -150 2 -27
5 -59 6 -72 2 -13 17 -11 33 6 74 74 245 -3 245 -109 0 -65 79 -161 132 -161
53 0 372 -337 357 -377 -8 -20 14 -57 50 -85 34 -28 114 -93 176 -144 62 -52
124 -94 137 -94 12 0 23 -29 23 -65 l0 -64 -84 52 c-47 29 -108 52 -137 52
-29 0 -137 56 -239 125 -102 68 -212 136 -244 150 -32 14 -92 47 -133 74 -104
66 -103 66 -103 -74 0 -110 5 -124 45 -111 25 8 45 2 45 -12 0 -15 -11 -27
-25 -27 -14 0 -25 -22 -25 -49 0 -60 -104 -176 -159 -176 -63 0 -49 -72 17
-89 32 -8 68 -12 81 -9 13 3 40 -1 61 -9 21 -8 156 -21 300 -29 598 -33 582
-79 -45 -126 -415 -31 -551 -55 -664 -117 -114 -62 -625 -35 -812 43 -47 20
-188 49 -313 66 -172 22 -241 42 -279 81 -27 28 -78 70 -112 92 l-62 41 -5
872 c-2 479 -11 891 -21 915 -24 62 19 222 68 253 63 40 83 1 36 -70 -53 -80
-52 -138 3 -178 40 -29 44 -106 47 -926 5 -1021 -8 -965 214 -931 73 12 181
28 239 37 134 20 152 46 63 95 -144 79 -214 154 -190 205 12 25 15 97 6 159
-8 62 -17 94 -19 70 -2 -23 -16 -73 -31 -112 l-27 -70 -34 62 c-52 93 -46 177
13 193 40 10 50 34 50 120 0 86 12 114 63 147 40 27 62 64 62 107 0 79 64 158
129 158 25 0 69 23 97 51 40 40 60 45 100 23 28 -14 62 -19 76 -10 14 9 59 2
100 -15 41 -17 82 -23 91 -14 10 9 -8 23 -38 31 -30 8 -55 23 -55 33 0 51
-288 303 -573 501 -70 48 -133 107 -141 132 -8 24 -42 62 -75 84 -90 59 -78
109 27 109 48 0 87 -10 87 -21 0 -38 121 -154 161 -154 29 0 39 28 39 113 0
113 46 154 92 81z m-15856 -292 c8 -13 3 -31 -12 -40 -37 -23 -106 7 -87 38
20 31 80 33 99 2z m7867 -127 l-19 -87 -14 87 c-7 48 -8 103 0 121 25 68 52
-31 33 -121z m-3669 -62 c16 -41 -21 -74 -59 -50 -37 23 -30 87 10 87 19 0 41
-17 49 -37z m1301 -224 c9 -81 29 -163 44 -181 15 -18 33 -157 40 -309 15
-314 60 -345 59 -41 -1 188 27 269 56 160 9 -30 15 -98 16 -149 0 -107 37
-125 60 -31 21 80 49 79 88 -5 24 -54 35 -61 53 -32 41 65 27 142 -28 157 -66
17 -59 150 8 162 34 7 44 -8 44 -68 0 -82 21 -96 70 -47 43 43 37 97 -14 134
-64 48 21 138 88 95 35 -22 55 -15 106 38 123 130 147 141 172 75 18 -48 10
-72 -44 -125 -201 -202 -482 -935 -566 -1478 -74 -485 -5 -1243 141 -1544 10
-21 49 -125 86 -232 38 -107 78 -200 90 -208 11 -7 21 -33 21 -58 0 -25 17
-60 38 -77 20 -17 37 -47 37 -67 0 -20 25 -72 56 -116 76 -107 113 -167 150
-242 17 -34 46 -78 64 -97 18 -18 28 -47 22 -62 -15 -42 -101 -26 -129 24 -51
88 -172 185 -231 185 -60 0 -162 193 -141 269 18 67 -7 72 -71 14 -30 -27 -55
-33 -71 -17 -25 25 -37 184 -21 269 5 26 -4 52 -20 58 -18 6 -36 -33 -47 -104
-24 -165 -74 -145 -104 42 l-25 157 -4 -157 c-2 -121 7 -166 43 -202 61 -61
90 -229 40 -229 -22 0 -36 25 -36 63 0 39 -14 62 -38 62 -54 0 -74 -68 -39
-134 40 -74 -4 -198 -67 -186 -75 14 -84 202 -89 1983 -5 2050 27 2840 93
2251z m965 167 c-1 -86 -31 -156 -68 -156 -24 0 -32 14 -22 40 8 21 15 66 15
100 0 37 15 60 38 60 20 0 37 -20 37 -44z m-1208 -45 c13 -35 -74 -251 -115
-286 -25 -21 -71 -105 -162 -291 -48 -99 -98 -186 -111 -194 -14 -9 -33 -52
-42 -97 -10 -44 -32 -109 -49 -143 -18 -34 -43 -107 -57 -162 -14 -56 -49
-182 -78 -281 -33 -114 -53 -252 -53 -371 0 -104 -13 -213 -28 -242 -36 -67
19 -818 69 -941 19 -46 34 -122 34 -169 0 -53 14 -91 38 -100 20 -8 37 -44 38
-80 0 -37 17 -88 37 -115 20 -27 37 -64 37 -82 0 -18 39 -116 88 -218 48 -101
87 -195 87 -209 0 -13 19 -39 41 -58 23 -19 57 -68 77 -109 19 -42 62 -120 95
-175 34 -55 61 -115 62 -132 0 -63 -89 -28 -148 58 -33 49 -81 100 -106 113
-25 14 -46 41 -46 61 0 57 -98 143 -143 126 -45 -17 -132 51 -132 104 0 50
-144 189 -175 170 -40 -25 -29 -108 19 -135 40 -24 39 -30 -14 -83 -54 -54
-59 -55 -83 -13 -40 71 -73 23 -57 -81 13 -78 5 -106 -41 -152 -110 -110 -111
-89 -111 2001 0 1864 2 1968 47 2081 58 148 82 150 104 7 13 -88 27 -113 64
-113 32 0 47 -18 48 -56 1 -31 16 -113 34 -181 36 -137 94 -174 139 -90 38 71
67 65 89 -17 10 -38 23 -54 30 -36 6 17 -6 70 -28 116 -22 46 -40 102 -40 124
0 22 -10 40 -22 40 -36 0 -57 81 -29 109 18 18 54 -4 117 -70 l91 -97 -16 87
c-19 98 88 226 213 255 44 11 75 41 92 91 29 82 72 98 96 36z m2350 -56 c-21
-23 -46 -73 -55 -111 -10 -38 -27 -69 -40 -69 -12 0 -22 -21 -22 -47 0 -26
-18 -62 -40 -80 -21 -18 -58 -68 -81 -111 -160 -302 -229 -452 -229 -499 0
-29 -11 -64 -25 -78 -95 -95 -200 -698 -203 -1172 -5 -668 142 -1264 444
-1790 60 -105 109 -202 109 -217 0 -14 17 -32 38 -40 20 -8 51 -46 68 -84 37
-83 61 -116 142 -198 56 -56 58 -64 20 -101 -37 -38 -41 -36 -57 26 -9 36 -29
66 -45 67 -16 0 -57 40 -91 88 -34 48 -87 101 -116 118 -29 17 -92 81 -139
143 -57 76 -106 115 -152 120 -38 5 -68 23 -68 40 0 59 -78 190 -113 190 -18
0 -41 -22 -49 -50 -44 -138 -84 36 -67 292 3 43 -4 85 -16 93 -23 14 -55 -327
-55 -595 -1 -193 -25 -343 -53 -326 -12 8 -22 34 -22 59 0 25 -21 72 -46 105
-26 33 -54 90 -63 128 -22 88 -22 3626 0 3835 17 171 65 213 109 97 13 -35 35
-63 49 -63 14 0 26 -49 26 -109 0 -218 33 -566 54 -566 11 0 21 42 21 94 1
161 31 355 53 341 12 -7 22 -58 22 -113 0 -83 8 -99 44 -92 29 6 42 30 39 71
-5 83 64 268 107 284 19 7 35 31 35 52 0 46 57 49 124 8 59 -37 95 -10 53 40
-62 75 49 217 212 271 107 36 138 15 78 -51z m-3531 14 c-9 -31 -32 -74 -51
-96 -19 -22 -35 -55 -36 -75 0 -20 -56 -125 -125 -235 -68 -110 -124 -213
-124 -228 0 -16 -17 -43 -37 -60 -21 -17 -38 -49 -39 -72 0 -22 -28 -97 -62
-165 -34 -69 -62 -150 -62 -180 0 -30 -13 -86 -29 -125 -123 -292 -188 -1429
-90 -1551 13 -17 34 -96 45 -175 24 -169 84 -387 137 -498 20 -44 37 -96 37
-116 0 -20 21 -63 47 -96 25 -33 72 -116 103 -184 31 -69 104 -199 163 -288
133 -200 172 -320 91 -277 -29 15 -88 73 -132 127 -88 110 -145 127 -165 50
-25 -97 -56 -48 -48 76 10 164 -40 241 -100 155 -44 -61 -109 -75 -109 -24 0
18 12 45 27 60 46 46 17 145 -46 153 -67 10 -66 6 -18 96 35 66 34 74 -13 106
-27 19 -50 55 -50 80 0 25 -10 51 -22 58 -12 8 -28 58 -37 111 -9 54 -30 110
-48 124 -17 15 -34 80 -37 144 -3 65 -19 135 -37 156 -19 23 -33 118 -34 240
-2 112 -16 276 -31 365 -52 313 -56 375 -19 375 38 0 64 125 65 307 0 66 18
155 40 197 23 46 33 102 23 139 -10 43 -1 79 29 112 31 34 44 85 41 160 -2 60
6 116 18 123 12 7 29 82 39 165 10 91 30 156 51 164 19 7 34 39 34 70 0 31 21
83 47 116 26 33 51 82 57 110 7 34 26 47 64 42 67 -9 175 58 195 121 8 26 35
53 59 61 25 8 58 42 74 76 38 83 140 88 115 6z m3815 -187 c92 25 99 -109 99
-1890 0 -1731 -5 -1842 -89 -1842 -32 0 -61 -54 -61 -115 0 -47 98 -45 116 3
23 59 59 43 59 -25 0 -46 -13 -63 -48 -63 -70 0 -152 -117 -152 -216 0 -46
-10 -84 -21 -84 -12 0 -29 137 -38 304 -21 397 -21 3524 1 3896 l16 288 37
-134 c30 -105 47 -130 81 -122z m-1051 119 c0 -92 -24 -155 -53 -137 -25 16
-30 194 -6 219 30 30 59 -11 59 -82z m1175 13 c0 -47 -11 -93 -25 -101 -15
-10 -25 24 -25 86 0 55 11 101 25 101 14 0 25 -39 25 -86z m-2325 -89 c0 -55
-11 -100 -25 -100 -14 0 -25 45 -25 100 0 55 11 100 25 100 14 0 25 -45 25
-100z m-11904 -2542 c-13 -62 -71 -71 -71 -10 0 31 16 52 39 52 24 0 36 -17
32 -42z m26604 -905 c0 -25 -142 -207 -183 -235 -39 -25 -898 6 -928 35 -62
57 115 95 569 122 262 15 387 33 425 60 61 42 117 51 117 18z m-1292 -247 c-8
-24 -140 -167 -293 -319 -152 -151 -332 -334 -398 -406 -189 -206 -197 -195
-170 246 21 352 17 398 -34 398 -28 0 -282 -254 -620 -620 -188 -204 -193
-197 -186 282 l6 413 350 2 c192 2 490 2 662 0 172 -1 374 8 450 20 225 36
250 34 233 -16z m-1745 -23 c0 -44 -788 -836 -815 -819 -15 9 -18 154 -7 384
12 270 8 374 -13 387 -18 12 -176 -132 -412 -374 -227 -232 -391 -382 -401
-366 -9 15 -17 174 -17 353 0 184 -10 332 -24 340 -29 18 -218 -152 -537 -480
-289 -297 -312 -299 -312 -26 0 117 -12 220 -27 235 -45 45 41 148 159 188 58
20 145 51 193 68 48 18 138 41 200 52 62 12 141 31 175 45 34 13 231 26 437
28 206 3 377 7 379 10 22 22 1022 -3 1022 -25z m-12475 -335 c19 -59 3 -86
-36 -62 -33 21 -36 114 -4 114 13 0 31 -23 40 -52z m956 8 c15 -45 -57 -38
-96 9 -29 35 -26 39 26 31 33 -5 64 -23 70 -40z m-1244 -53 c0 -26 -22 -53
-50 -60 -30 -8 -50 -34 -50 -66 0 -35 -16 -52 -50 -52 -64 0 -64 29 1 70 28
17 61 59 74 93 28 73 75 82 75 15z m10101 3 c-49 -84 -122 -156 -159 -156 -20
0 -73 -34 -117 -75 -44 -41 -100 -75 -125 -75 -24 0 -58 -17 -75 -37 -17 -21
-45 -38 -61 -38 -16 0 -62 -34 -101 -75 -40 -41 -87 -75 -105 -75 -18 0 -33
-11 -33 -25 0 -29 -125 -153 -251 -250 -45 -34 -103 -83 -129 -108 -27 -25
-60 -41 -74 -36 -37 12 208 303 409 486 340 309 923 639 821 464z m-10853
-141 c20 -24 21 -41 3 -52 -35 -21 -76 6 -76 51 0 46 35 46 73 1z m2146 -21
c-16 -48 -94 -54 -94 -8 0 23 21 39 52 39 31 0 48 -13 42 -31z m-10783 -67 c8
-13 3 -31 -12 -40 -37 -23 -106 7 -87 38 20 31 80 33 99 2z m17846 -3271 c-9
-24 -22 -49 -30 -56 -8 -7 -59 -69 -113 -137 -102 -131 -1116 -1148 -1265
-1271 -48 -39 -148 -129 -224 -201 -76 -71 -205 -186 -287 -254 -83 -68 -156
-129 -163 -137 -26 -28 -419 -344 -575 -463 -89 -67 -196 -154 -237 -192 -42
-39 -89 -70 -106 -70 -16 0 -39 -15 -50 -33 -22 -38 -887 -663 -1076 -779 -23
-14 -145 -93 -271 -175 -307 -201 -527 -339 -641 -403 -51 -30 -108 -65 -125
-79 -17 -13 -110 -68 -206 -120 -97 -52 -209 -115 -250 -139 -42 -24 -132 -73
-200 -109 -69 -35 -145 -75 -169 -88 -97 -55 -139 -78 -306 -174 -218 -125
-213 -125 -466 11 -115 61 -243 128 -284 149 -42 20 -165 88 -275 150 -110 62
-217 121 -238 131 -21 10 -160 92 -310 182 -149 90 -318 190 -375 223 -56 33
-173 109 -260 169 -87 60 -162 109 -168 109 -10 0 -558 368 -723 485 -374 267
-1008 743 -1085 816 -23 22 -92 78 -154 125 -692 525 -2300 2064 -2300 2200 0
34 29 29 86 -14 27 -20 66 -37 88 -38 21 -1 77 -34 125 -75 48 -41 100 -74
116 -74 16 0 43 -17 60 -37 17 -21 51 -38 76 -38 25 0 67 -28 95 -62 27 -35
72 -63 100 -63 28 0 83 -29 121 -65 39 -36 129 -99 200 -139 70 -40 134 -89
142 -108 7 -19 50 -38 96 -43 85 -8 140 -95 59 -95 -21 0 -39 -17 -39 -37 0
-21 17 -38 38 -38 21 0 45 17 53 38 24 62 66 42 49 -25 -13 -52 -5 -65 52 -79
95 -24 397 -330 361 -366 -35 -35 -36 -68 -3 -68 14 0 25 17 25 38 0 20 22 37
50 37 59 0 150 -84 150 -137 0 -21 15 -38 33 -38 18 0 105 -67 194 -149 223
-207 234 -215 284 -234 35 -14 38 -25 16 -53 -23 -26 -22 -39 2 -54 17 -10 35
-6 40 11 11 32 156 41 156 9 0 -10 35 -32 77 -48 97 -37 74 -82 -43 -82 -59 0
-85 -10 -78 -31 6 -18 54 -32 113 -32 64 -1 122 -19 154 -48 51 -45 53 -45
104 20 28 36 65 66 81 65 16 0 10 -16 -14 -34 -61 -46 -55 -102 17 -149 34
-22 64 -70 69 -108 6 -54 25 -72 95 -90 119 -30 168 -79 128 -127 -21 -25 -22
-42 -4 -53 14 -9 26 2 26 23 0 28 25 39 88 39 92 0 120 -57 57 -120 -55 -55 5
-64 77 -11 83 61 103 52 103 -48 0 -44 13 -71 35 -71 19 0 41 -17 50 -39 8
-21 64 -60 125 -87 60 -27 116 -66 124 -86 8 -21 45 -38 83 -38 46 0 95 -27
145 -82 41 -45 140 -114 219 -153 79 -39 144 -82 144 -94 0 -13 51 -46 113
-74 61 -27 112 -60 112 -73 0 -13 27 -24 60 -24 33 0 66 -17 74 -37 8 -21 39
-35 71 -32 43 5 59 -8 65 -50 9 -59 111 -81 143 -31 18 31 129 33 147 4 7 -12
-15 -35 -50 -50 -86 -40 -53 -79 66 -79 79 0 99 -9 99 -45 0 -58 576 -355 688
-355 41 0 116 22 166 49 50 26 97 41 106 33 9 -9 38 9 66 39 28 30 67 54 88
54 52 0 261 203 261 254 0 62 32 73 120 40 65 -24 85 -22 125 14 27 25 66 36
89 27 22 -8 41 -3 41 11 0 15 42 46 94 69 251 112 306 141 306 160 0 12 45 41
100 66 71 31 100 59 100 96 0 84 51 120 103 73 24 -22 55 -33 69 -24 29 17 8
92 -32 119 -48 32 2 47 71 21 102 -39 157 -31 171 24 8 30 34 50 65 50 28 0
63 21 76 47 14 26 52 54 85 62 32 8 71 43 87 77 17 37 57 69 98 77 106 23 142
49 157 113 10 40 40 65 94 79 44 12 91 42 105 68 13 25 66 54 116 63 102 19
121 33 270 183 58 58 123 106 144 106 22 0 54 17 71 37 17 21 80 62 140 92
129 64 140 96 33 96 -51 0 -74 11 -67 31 16 46 92 54 162 16 55 -29 66 -27 97
16 102 143 156 194 240 229 81 33 89 43 64 83 -22 35 -21 55 4 85 44 53 68 50
84 -10 7 -27 31 -50 53 -50 55 0 50 43 -10 81 -65 40 -66 119 -2 119 27 0 66
-18 88 -39 21 -22 52 -31 68 -21 20 12 16 27 -15 50 -69 50 -33 94 82 100 101
5 227 86 229 148 3 80 183 172 207 106 6 -17 20 -23 32 -12 11 10 7 32 -9 48
-17 17 -30 57 -30 90 0 39 -18 64 -50 73 -27 7 -50 32 -50 56 0 77 32 77 79 1
52 -86 120 -98 139 -25 8 33 34 50 73 50 33 0 67 17 75 38 8 20 25 37 39 37
14 0 53 22 88 50 35 28 51 50 35 50 -15 0 -28 22 -28 48 0 77 361 311 421 273
68 -42 129 -9 129 68 0 58 8 64 60 51 48 -12 75 2 129 66 48 57 85 79 127 73
36 -5 65 8 74 32 9 21 28 40 44 40 16 1 85 40 154 86 144 98 167 104 144 44z
m-13032 -868 c0 -21 -22 -38 -50 -38 -50 0 -65 27 -33 58 30 31 83 18 83 -20z
m11250 -237 c0 -68 -43 -86 -73 -30 -27 51 -13 79 40 79 18 0 33 -22 33 -49z"/>
<path d="M31640 33998 c-66 -68 -89 -109 -72 -126 31 -31 207 127 207 187 0
62 -28 49 -135 -61z"/>
<path d="M31741 33810 c-86 -88 -176 -160 -200 -160 -24 0 -106 -67 -184 -149
-145 -154 -182 -167 -182 -62 0 78 -11 77 -95 -9 -38 -39 -88 -78 -112 -87
-55 -21 -55 -58 0 -79 27 -11 55 -1 75 26 29 41 34 41 82 -2 l51 -46 -55 -59
c-30 -32 -76 -58 -101 -58 -25 0 -127 -84 -227 -187 -183 -192 -233 -225 -211
-141 27 107 -26 116 -119 21 -50 -51 -102 -93 -117 -93 -18 0 -17 -12 2 -36
20 -24 58 -31 116 -21 55 9 86 3 86 -14 0 -47 -83 -129 -131 -129 -25 0 -126
-84 -226 -187 -198 -206 -223 -221 -213 -120 10 96 -56 100 -117 7 -28 -41
-65 -75 -82 -75 -39 0 -41 -66 -2 -90 16 -10 43 3 62 27 33 46 109 18 109 -40
0 -41 -86 -122 -131 -122 -24 0 -126 -85 -227 -188 -182 -189 -217 -204 -217
-95 0 75 -12 73 -95 -12 -38 -39 -88 -78 -112 -87 -55 -21 -55 -58 0 -79 27
-10 55 -1 74 26 34 46 108 11 108 -52 0 -43 -83 -113 -134 -113 -23 0 -123
-84 -223 -187 -183 -192 -233 -225 -211 -141 27 107 -26 116 -119 21 -50 -51
-101 -93 -114 -93 -13 0 -24 -11 -24 -25 0 -14 51 -25 113 -25 77 0 112 -10
112 -34 0 -45 -81 -116 -133 -116 -24 0 -124 -85 -225 -188 -182 -189 -217
-204 -217 -95 0 76 -25 73 -101 -12 -34 -39 -81 -78 -105 -87 -56 -21 -56 -58
-1 -79 27 -10 55 -1 74 26 34 46 108 11 108 -52 0 -43 -83 -113 -134 -113 -23
0 -123 -84 -223 -187 -183 -192 -233 -225 -211 -141 27 107 -26 116 -119 21
-50 -51 -102 -93 -117 -93 -18 0 -17 -12 2 -36 20 -24 58 -31 116 -21 65 10
86 5 86 -23 0 -49 -80 -120 -134 -120 -23 0 -123 -84 -223 -187 -198 -206
-223 -221 -213 -120 10 96 -56 100 -117 7 -28 -41 -65 -75 -82 -75 -39 0 -41
-66 -2 -90 16 -10 43 3 62 27 33 46 109 18 109 -40 0 -41 -86 -122 -131 -122
-24 0 -126 -85 -227 -188 -182 -189 -217 -204 -217 -95 0 75 -12 73 -95 -12
-38 -39 -88 -78 -112 -87 -55 -21 -55 -58 0 -79 27 -10 55 -1 74 26 34 46 108
11 108 -52 0 -43 -83 -113 -134 -113 -23 0 -123 -84 -223 -187 -183 -192 -233
-225 -211 -141 28 110 -27 114 -130 11 -126 -126 -126 -133 -2 -133 67 0 100
-11 100 -34 0 -48 -83 -116 -143 -116 -97 0 -93 -158 7 -267 57 -61 58 -61 85
-10 23 43 36 46 74 23 47 -30 202 51 202 105 0 13 33 40 73 60 72 38 196 206
182 249 -14 42 97 135 146 122 34 -9 56 7 77 53 17 36 50 65 74 65 57 0 263
230 285 318 16 67 161 222 280 300 32 21 58 55 58 75 0 23 14 32 38 23 21 -8
57 1 81 21 24 19 69 56 101 80 31 25 60 74 62 108 6 71 88 175 136 175 18 0
52 23 75 50 24 27 62 50 85 50 56 0 262 230 283 316 19 77 111 183 158 184 17
0 51 23 74 50 24 27 62 50 85 50 56 0 262 231 283 317 21 83 94 154 227 220
154 77 437 380 394 422 -29 30 94 136 144 123 34 -9 56 7 77 53 17 36 50 65
74 65 57 0 263 230 285 318 16 67 161 222 280 300 32 21 58 55 58 75 0 25 14
32 42 21 48 -18 269 198 243 240 -25 40 87 142 141 128 35 -9 51 5 64 59 17
76 152 215 268 275 55 29 69 52 63 105 -10 102 147 273 194 210 43 -59 89 -12
95 98 3 61 17 86 53 93 64 12 153 101 166 166 6 28 29 48 53 46 23 -2 36 7 28
20 -22 36 168 209 220 200 33 -5 50 13 61 69 11 58 29 77 71 77 63 0 123 105
100 176 -9 28 2 54 28 69 64 36 28 91 -61 95 -68 4 -105 -20 -238 -155z"/>
<path d="M7100 31980 c0 -11 34 -46 75 -76 60 -44 75 -48 75 -17 0 21 -17 38
-37 38 -21 0 -38 17 -38 38 0 20 -17 37 -37 37 -21 0 -38 -9 -38 -20z"/>
<path d="M22100 29588 c0 -25 24 -38 69 -37 66 1 66 2 20 37 -62 47 -89 47
-89 0z"/>
<path d="M21689 29502 c-8 -13 -4 -30 8 -38 30 -18 103 9 103 39 0 29 -93 28
-111 -1z"/>
<path d="M21410 29415 c-8 -20 -41 -42 -74 -51 -62 -15 -86 -89 -29 -89 51 0
221 125 205 151 -22 36 -87 29 -102 -11z"/>
<path d="M6575 25524 c0 -14 16 -32 37 -40 20 -7 43 -35 51 -61 13 -39 22 -42
63 -16 57 35 64 68 15 68 -19 0 -49 17 -66 38 -35 42 -100 50 -100 11z"/>
<path d="M9067 25258 c-34 -34 -15 -83 32 -83 62 0 93 49 48 77 -42 27 -59 28
-80 6z"/>
<path d="M20181 21521 c13 -42 88 -85 109 -64 24 23 -38 93 -83 93 -20 0 -32
-13 -26 -29z"/>
<path d="M22711 19773 c-26 -42 32 -90 67 -55 29 29 11 82 -28 82 -12 0 -30
-12 -39 -27z"/>
<path d="M12894 16483 c-74 -20 -49 -77 41 -93 47 -9 92 -33 99 -53 19 -49
116 -48 116 1 0 20 -15 37 -33 37 -18 0 -57 28 -87 63 -30 34 -63 61 -74 59
-10 -1 -38 -8 -62 -14z"/>
<path d="M27593 16460 c-41 -42 -11 -60 97 -60 80 0 111 9 104 31 -11 35 -172
57 -201 29z"/>
<path d="M25782 12625 c-38 -44 -74 -50 -285 -50 -192 0 -245 -8 -256 -37 -11
-29 -57 -38 -188 -38 -137 0 -176 -8 -188 -41 -13 -34 -43 -39 -179 -28 -144
12 -165 8 -189 -37 -23 -43 -44 -48 -149 -36 -105 12 -126 7 -149 -34 -19 -36
-52 -49 -122 -49 -65 0 -102 -13 -112 -39 -24 -64 -65 -15 -65 78 0 100 -43
113 -114 34 -45 -49 -45 -53 -4 -77 63 -35 29 -71 -68 -71 -46 0 -97 -17 -114
-38 -18 -21 -52 -32 -77 -24 -30 10 -54 -3 -73 -38 -19 -36 -43 -48 -75 -37
-32 10 -56 -2 -74 -37 -16 -29 -53 -51 -87 -51 -32 0 -65 -17 -73 -37 -8 -21
-42 -38 -75 -38 -33 0 -67 -17 -75 -37 -8 -21 -36 -38 -62 -38 -26 0 -62 -17
-79 -37 -40 -49 -75 -26 -75 50 0 32 -11 66 -25 75 -14 8 -25 2 -25 -13 0 -15
-39 -44 -87 -64 -96 -40 -118 -116 -47 -156 50 -28 24 -80 -39 -80 -25 0 -60
-17 -78 -39 -18 -21 -47 -33 -65 -26 -18 7 -71 -26 -117 -73 -47 -48 -108 -87
-136 -87 -28 0 -58 -18 -66 -40 -9 -23 -31 -34 -52 -26 -24 9 -120 -70 -272
-223 -129 -130 -253 -236 -274 -236 -22 0 -241 -202 -488 -450 -247 -247 -465
-450 -486 -450 -20 0 -51 -17 -68 -38 -28 -33 -35 -33 -61 3 -33 45 -117 40
-132 -8 -6 -17 19 -38 56 -47 l66 -17 -137 -134 c-76 -74 -155 -134 -176 -134
-43 0 -216 -161 -216 -201 0 -13 -11 -24 -25 -24 -14 0 -25 18 -25 41 0 50
-120 165 -152 145 -31 -19 -29 -104 3 -124 17 -11 18 -27 3 -45 -13 -16 -28
-57 -33 -91 -5 -39 -29 -66 -65 -75 -31 -7 -89 -44 -129 -82 -40 -38 -95 -69
-122 -69 -27 0 -56 -17 -64 -37 -8 -21 -42 -38 -75 -38 -33 0 -68 -18 -76 -41
-12 -30 -35 -36 -91 -25 -57 11 -86 3 -118 -34 -23 -28 -67 -50 -96 -50 -30 0
-61 -17 -69 -37 -28 -73 -110 -43 -141 50 -33 99 -64 95 -87 -10 -15 -69 -20
-71 -217 -85 -263 -18 -305 -58 -87 -81 194 -21 197 -62 5 -62 -96 0 -138 -11
-148 -37 -11 -29 -57 -38 -188 -38 -130 0 -176 -9 -187 -37 -12 -31 -69 -38
-300 -38 -231 0 -288 -7 -300 -38 -13 -32 -228 -37 -1725 -37 -1498 0 -1712
-5 -1725 -37 -10 -25 -49 -38 -117 -38 -84 0 -101 -8 -94 -44 7 -35 35 -43
135 -43 70 0 144 -15 165 -32 67 -55 8788 -45 8849 10 41 37 103 40 570 26
517 -16 525 -16 553 36 27 52 39 53 336 36 301 -17 309 -16 338 37 27 51 41
54 188 39 143 -15 161 -11 186 35 23 43 48 49 173 44 111 -5 158 4 195 37 35
32 71 40 126 29 62 -12 82 -5 105 38 24 44 43 51 113 38 70 -13 89 -7 113 39
24 46 43 52 113 39 69 -13 89 -6 112 36 21 39 48 50 116 45 63 -4 96 7 114 39
21 38 45 42 145 28 108 -14 124 -10 150 38 24 46 44 52 113 39 70 -13 89 -6
113 37 23 44 43 51 112 38 68 -13 89 -6 111 33 20 39 49 48 136 45 75 -3 126
10 159 40 27 24 66 37 88 29 25 -9 50 5 68 40 24 44 44 51 108 39 63 -13 87
-5 120 38 40 54 43 54 148 12 68 -27 115 -34 131 -18 33 33 -3 82 -55 73 -25
-4 -49 4 -54 18 -6 13 15 28 46 32 30 5 89 42 130 83 41 41 94 71 118 67 68
-12 70 71 3 89 -42 11 -69 0 -100 -41 -38 -50 -43 -51 -59 -12 -13 36 -48 44
-189 44 -131 0 -177 9 -188 38 -11 29 -62 37 -234 37 -172 0 -223 -8 -234 -37
-9 -24 -47 -38 -103 -38 -57 0 -95 14 -104 38 -11 29 -62 37 -234 37 -172 0
-223 -8 -234 -37 -10 -27 -53 -38 -150 -38 -98 0 -140 -11 -150 -37 -11 -29
-57 -38 -188 -38 -130 0 -176 -9 -187 -37 -12 -32 -81 -38 -403 -38 -323 0
-392 6 -404 38 -8 20 -42 37 -75 37 -33 0 -67 17 -75 38 -8 20 -37 37 -64 37
-87 0 -317 252 -292 319 11 31 38 56 59 56 21 0 38 11 38 25 0 14 -37 25 -83
25 -103 0 -183 54 -153 102 12 20 19 59 15 87 -3 28 17 72 45 97 67 61 67 139
1 139 -54 0 -64 25 -27 64 30 30 227 415 227 443 0 12 33 55 73 95 41 40 77
99 82 129 5 37 25 57 57 57 27 0 62 26 79 59 16 33 42 68 58 77 16 10 47 56
71 103 31 63 57 84 95 78 52 -7 124 102 105 161 -12 39 245 286 283 272 20 -8
66 24 106 72 43 52 86 81 108 72 23 -8 82 36 158 117 66 73 131 125 144 117
22 -13 231 163 231 196 0 23 -128 138 -154 138 -12 0 -41 -22 -64 -50z"/>
<path d="M27213 10225 c-9 -14 -48 -25 -88 -25 -71 0 -120 -38 -89 -69 15 -15
75 -16 283 -6 85 4 116 50 34 50 -26 0 -54 17 -62 38 -17 42 -56 49 -78 12z"/>
<path d="M19456 9349 c-75 -30 -71 -69 8 -89 74 -19 125 19 103 76 -17 44 -31
45 -111 13z"/>
<path d="M25817 8626 c-61 -61 -10 -91 57 -34 28 24 51 53 51 64 0 34 -61 17
-108 -30z"/>
<path d="M9889 24227 c-18 -29 10 -102 39 -102 12 0 22 28 22 63 0 61 -34 83
-61 39z"/>
<path d="M13425 15150 c0 -462 9 -698 25 -687 16 9 25 266 25 687 0 421 -9
678 -25 688 -16 10 -25 -226 -25 -688z"/>
<path d="M29225 15190 c0 -55 28 -115 53 -115 12 0 22 34 22 75 0 50 -12 75
-37 75 -21 0 -38 -16 -38 -35z"/>
<path d="M28425 15079 c-222 -107 -312 -219 -339 -423 -54 -408 303 -696 720
-580 209 58 407 418 341 621 -103 317 -461 507 -722 382z"/>
<path d="M15792 15146 c-8 -30 -8 -66 1 -79 17 -28 82 51 82 100 0 55 -68 37
-83 -21z"/>
<path d="M24065 7085 c-8 -22 -9 -50 -1 -62 18 -29 111 30 111 71 0 45 -92 38
-110 -9z"/>
</g>
</svg>
